HIERARCHY
ROOT Hips
{
	OFFSET -410.937256 -573.586853 88.927803
	CHANNELS 6 Xposition Yposition Zposition Zrotation Yrotation Xrotation
	JOINT Spine
	{
		OFFSET 0.000000 2.080078 8.814247
		CHANNELS 6 Xposition Yposition Zposition Zrotation Yrotation Xrotation
		JOINT Spine1
		{
			OFFSET 0.000000 0.000000 8.844139
			CHANNELS 6 Xposition Yposition Zposition Zrotation Yrotation Xrotation
			JOINT Spine2
			{
				OFFSET 0.000000 0.000000 11.682266
				CHANNELS 6 Xposition Yposition Zposition Zrotation Yrotation Xrotation
				JOINT Spine3
				{
					OFFSET 0.000000 0.000000 11.746696
					CHANNELS 6 Xposition Yposition Zposition Zrotation Yrotation Xrotation
					JOINT Neck
					{
						OFFSET 0.000000 0.000000 17.658264
						CHANNELS 6 Xposition Yposition Zposition Zrotation Yrotation Xrotation
						JOINT Neck1
						{
							OFFSET 0.000000 0.000000 5.101517
							CHANNELS 6 Xposition Yposition Zposition Zrotation Yrotation Xrotation
							JOINT Head
							{
								OFFSET 0.000000 0.000000 5.101517
								CHANNELS 6 Xposition Yposition Zposition Zrotation Yrotation Xrotation
								JOINT HeadEnd
								{
									OFFSET 0.000000 0.000000 11.655090
									CHANNELS 6 Xposition Yposition Zposition Zrotation Yrotation Xrotation
									End Site
									{
										OFFSET 0.000000 0.000000 0.100006
									}
								}
							}
						}
					}
					JOINT RightShoulder
					{
						OFFSET -2.625397 0.000000 11.175217
						CHANNELS 6 Xposition Yposition Zposition Zrotation Yrotation Xrotation
						JOINT RightArm
						{
							OFFSET 0.000000 0.000000 10.434708
							CHANNELS 6 Xposition Yposition Zposition Zrotation Yrotation Xrotation
							JOINT RightForeArm
							{
								OFFSET 0.000000 0.000000 29.628418
								CHANNELS 6 Xposition Yposition Zposition Zrotation Yrotation Xrotation
								JOINT RightHand
								{
									OFFSET 0.000000 0.000000 22.857605
									CHANNELS 6 Xposition Yposition Zposition Zrotation Yrotation Xrotation
									JOINT RightHandThumb1
									{
										OFFSET -2.867310 -2.944275 3.959564
										CHANNELS 6 Xposition Yposition Zposition Zrotation Yrotation Xrotation
										JOINT RightHandThumb2
										{
											OFFSET 0.000000 0.000000 3.350403
											CHANNELS 6 Xposition Yposition Zposition Zrotation Yrotation Xrotation
											JOINT RightHandThumb3
											{
												OFFSET 0.000000 0.000000 3.756516
												CHANNELS 6 Xposition Yposition Zposition Zrotation Yrotation Xrotation
												JOINT RightHandThumb4
												{
													OFFSET 0.000000 0.000000 3.147339
													CHANNELS 6 Xposition Yposition Zposition Zrotation Yrotation Xrotation
													End Site
													{
														OFFSET 0.000000 0.000000 0.100006
													}
												}
											}
										}
									}
									JOINT RightHandIndex1
									{
										OFFSET -0.086761 -2.345276 10.030899
										CHANNELS 6 Xposition Yposition Zposition Zrotation Yrotation Xrotation
										JOINT RightHandIndex2
										{
											OFFSET 0.000000 0.000000 4.061096
											CHANNELS 6 Xposition Yposition Zposition Zrotation Yrotation Xrotation
											JOINT RightHandIndex3
											{
												OFFSET 0.000000 0.000000 3.248871
												CHANNELS 6 Xposition Yposition Zposition Zrotation Yrotation Xrotation
												JOINT RightHandIndex4
												{
													OFFSET 0.000000 0.000000 2.639709
													CHANNELS 6 Xposition Yposition Zposition Zrotation Yrotation Xrotation
													End Site
													{
														OFFSET 0.000000 0.000000 0.100006
													}
												}
											}
										}
									}
									JOINT RightHandMiddle1
									{
										OFFSET 0.104095 -0.006775 9.502945
										CHANNELS 6 Xposition Yposition Zposition Zrotation Yrotation Xrotation
										JOINT RightHandMiddle2
										{
											OFFSET 0.000000 0.000000 4.568726
											CHANNELS 6 Xposition Yposition Zposition Zrotation Yrotation Xrotation
											JOINT RightHandMiddle3
											{
												OFFSET 0.000000 0.000000 3.654984
												CHANNELS 6 Xposition Yposition Zposition Zrotation Yrotation Xrotation
												JOINT RightHandMiddle4
												{
													OFFSET 0.000000 0.000000 2.741241
													CHANNELS 6 Xposition Yposition Zposition Zrotation Yrotation Xrotation
													End Site
													{
														OFFSET 0.000000 0.000000 0.100006
													}
												}
											}
										}
									}
									JOINT RightHandRing1
									{
										OFFSET 0.086761 2.267456 8.921707
										CHANNELS 6 Xposition Yposition Zposition Zrotation Yrotation Xrotation
										JOINT RightHandRing2
										{
											OFFSET 0.000000 0.000000 4.061096
											CHANNELS 6 Xposition Yposition Zposition Zrotation Yrotation Xrotation
											JOINT RightHandRing3
											{
												OFFSET 0.000000 0.000000 3.654984
												CHANNELS 6 Xposition Yposition Zposition Zrotation Yrotation Xrotation
												JOINT RightHandRing4
												{
													OFFSET 0.000000 0.000000 2.741241
													CHANNELS 6 Xposition Yposition Zposition Zrotation Yrotation Xrotation
													End Site
													{
														OFFSET 0.000000 0.000000 0.100006
													}
												}
											}
										}
									}
									JOINT RightHandPinky1
									{
										OFFSET -0.173492 4.467224 7.976990
										CHANNELS 6 Xposition Yposition Zposition Zrotation Yrotation Xrotation
										JOINT RightHandPinky2
										{
											OFFSET 0.000000 0.000000 3.350403
											CHANNELS 6 Xposition Yposition Zposition Zrotation Yrotation Xrotation
											JOINT RightHandPinky3
											{
												OFFSET 0.000000 0.000000 2.842758
												CHANNELS 6 Xposition Yposition Zposition Zrotation Yrotation Xrotation
												JOINT RightHandPinky4
												{
													OFFSET 0.000000 0.000000 2.639709
													CHANNELS 6 Xposition Yposition Zposition Zrotation Yrotation Xrotation
													End Site
													{
														OFFSET 0.000000 0.000000 0.100006
													}
												}
											}
										}
									}
									JOINT RightForeArmEnd
									{
										OFFSET 0.000000 0.000000 0.000000
										CHANNELS 6 Xposition Yposition Zposition Zrotation Yrotation Xrotation
										End Site
										{
											OFFSET 0.000000 0.000000 0.100006
										}
									}
								}
								JOINT RightArmEnd
								{
									OFFSET 0.000000 0.000000 0.000000
									CHANNELS 6 Xposition Yposition Zposition Zrotation Yrotation Xrotation
									End Site
									{
										OFFSET 0.000000 0.000000 0.100006
									}
								}
							}
						}
					}
					JOINT LeftShoulder
					{
						OFFSET 2.625397 0.000000 11.175217
						CHANNELS 6 Xposition Yposition Zposition Zrotation Yrotation Xrotation
						JOINT LeftArm
						{
							OFFSET 0.000000 0.000000 10.813629
							CHANNELS 6 Xposition Yposition Zposition Zrotation Yrotation Xrotation
							JOINT LeftForeArm
							{
								OFFSET 0.000000 0.000000 28.724777
								CHANNELS 6 Xposition Yposition Zposition Zrotation Yrotation Xrotation
								JOINT LeftHand
								{
									OFFSET 0.644379 0.328857 25.716171
									CHANNELS 6 Xposition Yposition Zposition Zrotation Yrotation Xrotation
									JOINT LeftHandThumb1
									{
										OFFSET 2.867310 -2.944275 3.959564
										CHANNELS 6 Xposition Yposition Zposition Zrotation Yrotation Xrotation
										JOINT LeftHandThumb2
										{
											OFFSET 0.000000 0.000000 3.350403
											CHANNELS 6 Xposition Yposition Zposition Zrotation Yrotation Xrotation
											JOINT LeftHandThumb3
											{
												OFFSET 0.000000 0.000000 3.756516
												CHANNELS 6 Xposition Yposition Zposition Zrotation Yrotation Xrotation
												JOINT LeftHandThumb4
												{
													OFFSET 0.000000 0.000000 3.100006
													CHANNELS 6 Xposition Yposition Zposition Zrotation Yrotation Xrotation
													End Site
													{
														OFFSET 0.000000 0.000000 0.100006
													}
												}
											}
										}
									}
									JOINT LeftHandIndex1
									{
										OFFSET 0.086761 -2.345276 10.030899
										CHANNELS 6 Xposition Yposition Zposition Zrotation Yrotation Xrotation
										JOINT LeftHandIndex2
										{
											OFFSET 0.000000 0.000000 4.061096
											CHANNELS 6 Xposition Yposition Zposition Zrotation Yrotation Xrotation
											JOINT LeftHandIndex3
											{
												OFFSET 0.000000 0.000000 3.248871
												CHANNELS 6 Xposition Yposition Zposition Zrotation Yrotation Xrotation
												JOINT LeftHandIndex4
												{
													OFFSET 0.000000 0.000000 2.639709
													CHANNELS 6 Xposition Yposition Zposition Zrotation Yrotation Xrotation
													End Site
													{
														OFFSET 0.000000 0.000000 0.100006
													}
												}
											}
										}
									}
									JOINT LeftHandMiddle1
									{
										OFFSET -0.104095 -0.006775 9.502945
										CHANNELS 6 Xposition Yposition Zposition Zrotation Yrotation Xrotation
										JOINT LeftHandMiddle2
										{
											OFFSET 0.000000 0.000000 4.568726
											CHANNELS 6 Xposition Yposition Zposition Zrotation Yrotation Xrotation
											JOINT LeftHandMiddle3
											{
												OFFSET 0.000000 0.000000 3.654984
												CHANNELS 6 Xposition Yposition Zposition Zrotation Yrotation Xrotation
												JOINT LeftHandMiddle4
												{
													OFFSET 0.000000 0.000000 2.741241
													CHANNELS 6 Xposition Yposition Zposition Zrotation Yrotation Xrotation
													End Site
													{
														OFFSET 0.000000 0.000000 0.100006
													}
												}
											}
										}
									}
									JOINT LeftHandRing1
									{
										OFFSET -0.086761 2.267456 8.921707
										CHANNELS 6 Xposition Yposition Zposition Zrotation Yrotation Xrotation
										JOINT LeftHandRing2
										{
											OFFSET 0.000000 0.000000 4.061096
											CHANNELS 6 Xposition Yposition Zposition Zrotation Yrotation Xrotation
											JOINT LeftHandRing3
											{
												OFFSET 0.000000 0.000000 3.654984
												CHANNELS 6 Xposition Yposition Zposition Zrotation Yrotation Xrotation
												JOINT LeftHandRing4
												{
													OFFSET 0.000000 0.000000 2.741241
													CHANNELS 6 Xposition Yposition Zposition Zrotation Yrotation Xrotation
													End Site
													{
														OFFSET 0.000000 0.000000 0.100006
													}
												}
											}
										}
									}
									JOINT LeftHandPinky1
									{
										OFFSET 0.173492 4.467224 7.976990
										CHANNELS 6 Xposition Yposition Zposition Zrotation Yrotation Xrotation
										JOINT LeftHandPinky2
										{
											OFFSET 0.000000 0.000000 3.350403
											CHANNELS 6 Xposition Yposition Zposition Zrotation Yrotation Xrotation
											JOINT LeftHandPinky3
											{
												OFFSET 0.000000 0.000000 2.842758
												CHANNELS 6 Xposition Yposition Zposition Zrotation Yrotation Xrotation
												JOINT LeftHandPinky4
												{
													OFFSET 0.000000 0.000000 2.639709
													CHANNELS 6 Xposition Yposition Zposition Zrotation Yrotation Xrotation
													End Site
													{
														OFFSET 0.000000 0.000000 0.100006
													}
												}
											}
										}
									}
									JOINT LeftForeArmEnd
									{
										OFFSET 0.000000 0.000000 0.000000
										CHANNELS 6 Xposition Yposition Zposition Zrotation Yrotation Xrotation
										End Site
										{
											OFFSET 0.000000 0.000000 0.100006
										}
									}
								}
								JOINT LeftArmEnd
								{
									OFFSET 0.000000 0.000000 0.000000
									CHANNELS 6 Xposition Yposition Zposition Zrotation Yrotation Xrotation
									End Site
									{
										OFFSET 0.000000 0.000000 0.100006
									}
								}
							}
						}
					}
				}
			}
		}
	}
	JOINT RightUpLeg
	{
		OFFSET -11.289948 0.000000 0.000000
		CHANNELS 6 Xposition Yposition Zposition Zrotation Yrotation Xrotation
		JOINT RightLeg
		{
			OFFSET 0.000000 0.000000 -38.200329
			CHANNELS 6 Xposition Yposition Zposition Zrotation Yrotation Xrotation
			JOINT RightFoot
			{
				OFFSET 0.000000 0.000000 -39.900856
				CHANNELS 6 Xposition Yposition Zposition Zrotation Yrotation Xrotation
				JOINT RightToeBase
				{
					OFFSET 0.000000 -15.261658 0.000002
					CHANNELS 6 Xposition Yposition Zposition Zrotation Yrotation Xrotation
					JOINT RightToeBaseEnd
					{
						OFFSET 0.000000 -7.370728 0.000000
						CHANNELS 6 Xposition Yposition Zposition Zrotation Yrotation Xrotation
						End Site
						{
							OFFSET 0.000000 0.000000 0.100000
						}
					}
				}
				JOINT RightLegEnd
				{
					OFFSET 0.000000 0.000000 0.000000
					CHANNELS 6 Xposition Yposition Zposition Zrotation Yrotation Xrotation
					End Site
					{
						OFFSET 0.000000 0.000000 0.100000
					}
				}
			}
			JOINT RightUpLegEnd
			{
				OFFSET 0.000000 0.000000 0.000000
				CHANNELS 6 Xposition Yposition Zposition Zrotation Yrotation Xrotation
				End Site
				{
					OFFSET 0.000000 0.000000 0.099998
				}
			}
		}
	}
	JOINT LeftUpLeg
	{
		OFFSET 11.315674 0.000000 0.000000
		CHANNELS 6 Xposition Yposition Zposition Zrotation Yrotation Xrotation
		JOINT LeftLeg
		{
			OFFSET 0.000000 0.000000 -38.200329
			CHANNELS 6 Xposition Yposition Zposition Zrotation Yrotation Xrotation
			JOINT LeftFoot
			{
				OFFSET 0.000000 0.000000 -39.900856
				CHANNELS 6 Xposition Yposition Zposition Zrotation Yrotation Xrotation
				JOINT LeftToeBase
				{
					OFFSET 0.000000 -15.261658 0.000002
					CHANNELS 6 Xposition Yposition Zposition Zrotation Yrotation Xrotation
					JOINT LeftToeBaseEnd
					{
						OFFSET 0.000000 -7.539978 0.000000
						CHANNELS 6 Xposition Yposition Zposition Zrotation Yrotation Xrotation
						End Site
						{
							OFFSET 0.000000 0.000000 0.100000
						}
					}
				}
				JOINT LeftLegEnd
				{
					OFFSET 0.000000 0.000000 0.000000
					CHANNELS 6 Xposition Yposition Zposition Zrotation Yrotation Xrotation
					End Site
					{
						OFFSET 0.000000 0.000000 0.100000
					}
				}
			}
			JOINT LeftUpLegEnd
			{
				OFFSET 0.000000 0.000000 0.000000
				CHANNELS 6 Xposition Yposition Zposition Zrotation Yrotation Xrotation
				End Site
				{
					OFFSET 0.000000 0.000000 0.099998
				}
			}
		}
	}
}
MOTION
Frames: 2
Frame Time: 0.016667
-0.369293 -11.414429 82.346825 4.938196 0.553412 -18.625627 -0.000007 2.080069 8.814241 -0.447805 -3.579600 17.029963 -0.000014 -0.000004 8.844155 -0.142399 -0.819236 10.562845 -0.000013 0.000025 11.682277 0.148810 0.402838 15.031744 -0.000000 -0.000073 11.746705 0.842374 0.450863 7.541769 -0.000005 -0.000029 17.658279 -2.023337 -5.736363 -3.743729 -0.000004 -0.000030 5.101527 -1.373725 -0.512994 -7.972173 0.000013 -0.000030 5.101524 -1.235882 1.695734 -5.993004 -0.000000 -0.000002 11.655046 0.000000 0.000000 -0.000000 -2.625381 0.000031 11.175220 29.793712 -67.843183 0.495598 -0.000015 0.000038 10.434746 3.365620 -21.264845 38.280967 0.000021 0.000042 29.628414 25.107548 1.114549 19.303134 0.000023 0.000041 22.857605 -38.059464 13.885662 -8.207413 -2.867294 -2.944336 3.959564 32.416371 -13.591345 57.445852 -0.000097 0.000008 3.350414 -4.708373 4.020507 -9.020609 -0.000055 -0.000025 3.756521 -3.201753 2.871547 -6.227052 -0.000036 -0.000058 3.147355 0.000001 0.000000 -0.000001 -0.086754 -2.345341 10.030914 -5.192490 21.535873 14.696144 -0.000002 -0.000030 4.061102 0.844116 -0.000006 0.000138 0.000009 0.000008 3.248881 0.341989 0.000006 -0.005122 -0.000011 -0.000005 2.639696 0.000001 0.000001 0.000000 0.104095 -0.006828 9.502930 0.004824 20.621793 10.489869 0.000000 -0.000083 4.568740 0.680798 -0.055948 -0.000837 -0.000070 -0.000078 3.654999 0.157268 0.031152 -0.000145 0.000001 -0.000059 2.741258 0.000000 -0.000001 -0.000001 0.086777 2.267389 8.921745 8.457927 19.586447 7.373910 -0.000019 0.000023 4.061107 -1.206345 0.000070 0.243385 -0.000035 0.000010 3.655000 -0.150859 0.000003 0.188227 -0.000002 0.000004 2.741250 -0.000000 0.000002 -0.000001 -0.173508 4.467212 7.977013 17.272225 18.964169 3.223640 0.000010 -0.000037 3.350406 -2.276035 -0.000002 -0.000145 -0.000024 -0.000044 2.842788 -0.229114 0.000002 0.007115 -0.000029 0.000001 2.639710 -0.000000 0.000000 0.000000 0.000031 -0.000002 0.000004 0.000000 0.000000 -0.000000 -0.000001 0.000017 -0.000013 -0.000002 -0.000000 -0.000000 2.625389 0.000004 11.175242 -28.043136 61.002728 -0.755317 0.000004 0.000015 10.813637 -11.343025 23.053794 32.065792 0.000031 0.000036 28.724787 -4.393888 -0.732120 38.323563 0.644424 0.328861 25.716202 30.086498 -19.792495 -24.596525 2.867287 -2.944290 3.959587 -32.577038 13.119592 58.269423 -0.000005 -0.000010 3.350401 3.715634 -3.276713 -7.188205 -0.000011 0.000023 3.756527 2.536235 -2.325394 -4.967893 0.000026 0.000003 3.100008 0.000001 0.000000 -0.000002 0.086761 -2.345238 10.030930 -11.798748 -16.819498 28.664436 -0.000002 0.000029 4.061093 0.761779 -0.000108 0.000728 0.000031 -0.000029 3.248870 0.300767 -0.000001 0.027651 -0.000007 -0.000012 2.639705 0.000001 -0.000002 0.000000 -0.104084 -0.006756 9.502960 -7.764703 -21.393286 19.545192 0.000008 0.000010 4.568741 0.644054 -0.000291 0.000662 0.000012 0.000027 3.654982 0.087122 0.000002 -0.018646 -0.000012 0.000002 2.741268 -0.000000 0.000000 -0.000001 -0.086788 2.267459 8.921715 0.193989 -25.750670 7.873606 0.000009 -0.000017 4.061110 -1.277132 0.000465 0.001517 -0.000007 0.000001 3.654980 -0.242584 -0.000002 -0.028108 0.000021 0.000011 2.741214 -0.000002 -0.000002 -0.000000 0.173485 4.467230 7.977001 9.554215 -25.552600 -3.750931 -0.000036 0.000021 3.350420 -2.337038 -0.044071 0.001620 0.000043 0.000030 2.842787 -0.414875 0.023874 -0.000249 -0.000012 0.000006 2.639717 -0.000001 -0.000002 -0.000000 0.000005 0.000031 -0.000004 0.000004 -0.000001 -0.000001 0.000004 0.000002 0.000005 -0.000000 0.000002 -0.000001 -11.289906 -0.000014 -0.000004 -17.763194 10.961858 -3.797600 0.000004 0.000019 -38.200310 -0.444095 0.430200 44.731004 0.000020 -0.000038 -39.900852 -7.268172 -5.618693 3.027046 0.000052 -15.261695 0.000035 2.372002 0.254640 -15.627152 0.000001 -7.370676 0.000002 0.000001 0.000000 -0.000001 0.000015 -0.000009 0.000000 0.000001 -0.000001 -0.000001 0.000010 0.000009 -0.000004 -0.000001 0.000001 0.000000 11.315660 -0.000016 -0.000004 -0.962252 -10.868853 -5.748563 -0.000006 0.000039 -38.200333 0.898880 -0.859894 43.509541 -0.000003 0.000066 -39.900845 -3.067142 6.127302 6.054179 0.000022 -15.261745 0.000015 -2.121911 -0.454009 -19.672666 0.000004 -7.539970 -0.000000 -0.000001 0.000000 -0.000001 0.000024 0.000061 0.000001 -0.000000 -0.000000 0.000003 -0.000002 -0.000005 0.000000 0.000001 -0.000001 -0.000002 
-0.375092 -11.412903 82.350449 4.935753 0.562421 -18.612629 -0.000009 2.080077 8.814251 -0.448555 -3.584496 17.024617 0.000004 -0.000026 8.844166 -0.142687 -0.817389 10.552770 0.000015 0.000028 11.682277 0.149999 0.400357 15.032394 0.000001 -0.000011 11.746690 0.845437 0.447967 7.540589 -0.000010 -0.000015 17.658276 -2.023040 -5.754457 -3.747648 0.000013 -0.000030 5.101517 -1.371229 -0.512452 -7.980064 -0.000011 -0.000017 5.101512 -1.234846 1.713352 -5.981301 -0.000001 0.000003 11.655044 -0.000000 0.000000 0.000000 -2.625381 -0.000008 11.175202 29.854852 -67.818547 0.494789 -0.000004 0.000032 10.434746 3.576463 -21.286083 38.242721 -0.000023 0.000072 29.628403 25.159524 1.140047 19.183776 0.000061 0.000013 22.857613 -37.948090 13.811135 -8.239878 -2.867393 -2.944305 3.959526 32.416385 -13.591332 57.445859 0.000013 0.000008 3.350428 -4.708370 4.020504 -9.020586 -0.000019 0.000015 3.756533 -3.201753 2.871546 -6.227063 -0.000026 -0.000064 3.147372 0.000000 -0.000001 0.000001 -0.086830 -2.345360 10.030914 -5.194946 21.499947 14.730297 -0.000034 0.000077 4.061097 0.844214 -0.000001 0.000139 0.000044 -0.000016 3.248892 0.342014 0.000003 -0.005141 -0.000037 -0.000009 2.639711 0.000001 -0.000001 0.000000 0.104023 -0.006818 9.502960 0.002621 20.570607 10.511993 -0.000006 -0.000061 4.568740 0.680898 -0.000014 -0.000175 -0.000025 -0.000037 3.654985 0.157397 -0.000006 -0.000226 0.000033 -0.000065 2.741263 0.000001 -0.000001 0.000000 0.086712 2.267370 8.921738 8.459780 19.585419 7.381007 -0.000006 -0.000020 4.061105 -1.206441 0.000096 0.244369 -0.000042 -0.000003 3.654989 -0.150993 0.000005 0.188753 0.000003 -0.000003 2.741246 0.000001 0.000000 -0.000000 -0.173569 4.467194 7.976997 17.279634 18.986384 3.221114 -0.000038 -0.000053 3.350422 -2.275990 -0.000004 -0.000145 -0.000073 -0.000041 2.842759 -0.229046 0.000001 0.007033 -0.000033 0.000000 2.639697 0.000000 0.000000 0.000000 -0.000026 0.000001 0.000008 -0.000000 0.000001 -0.000000 0.000030 0.000004 -0.000000 -0.000000 -0.000001 -0.000000 2.625389 0.000015 11.175202 -28.116484 60.916476 -0.755522 -0.000011 0.000000 10.813622 -11.528354 23.033935 32.070296 0.000029 0.000013 28.724777 -4.354813 -0.714830 38.207897 0.644394 0.328812 25.716187 29.921911 -19.650265 -24.701277 2.867287 -2.944305 3.959587 -32.577055 13.119559 58.269409 -0.000004 -0.000015 3.350401 3.715643 -3.276687 -7.188219 0.000010 0.000017 3.756512 2.536218 -2.325407 -4.967846 -0.000008 -0.000006 3.100010 -0.000000 -0.000000 0.000002 0.086767 -2.345268 10.030914 -11.760626 -16.675956 28.709327 0.000012 -0.000004 4.061088 0.761801 -0.000052 0.000728 0.000008 0.000029 3.248875 0.300578 -0.000002 0.027680 -0.000039 0.000052 2.639699 0.000001 -0.000001 0.000000 -0.104086 -0.006775 9.502960 -7.736896 -21.273922 19.552352 0.000013 0.000029 4.568740 0.644002 -0.000002 0.000663 -0.000011 -0.000020 3.654987 0.087100 0.000009 -0.018407 -0.000003 -0.000011 2.741239 0.000001 -0.000000 -0.000001 -0.086769 2.267464 8.921753 0.210872 -25.653566 7.833992 0.000011 -0.000026 4.061116 -1.276544 0.000241 0.001528 -0.000014 0.000001 3.654981 -0.242015 -0.000004 -0.028065 -0.000009 -0.000009 2.741250 0.000001 -0.000001 -0.000000 0.173500 4.467205 7.977009 9.559849 -25.483852 -3.854885 -0.000015 -0.000009 3.350420 -2.336826 0.000426 -0.000197 0.000028 -0.000003 2.842788 -0.413693 -0.000009 -0.000077 0.000007 0.000014 2.639715 -0.000002 -0.000001 -0.000000 -0.000010 -0.000016 0.000014 0.000002 0.000001 0.000001 -0.000003 -0.000003 -0.000010 0.000000 -0.000000 -0.000001 -11.289936 0.000001 0.000015 -17.783589 10.949456 -3.797970 -0.000001 0.000079 -38.200298 -0.444606 0.431060 44.710685 0.000019 -0.000151 -39.900852 -7.257584 -5.608383 3.033513 0.000031 -15.261717 0.000044 2.372725 0.253982 -15.627106 -0.000013 -7.370673 0.000001 0.000001 0.000000 -0.000000 0.000003 0.000015 0.000000 -0.000002 -0.000001 -0.000001 0.000008 0.000001 -0.000000 0.000000 0.000001 0.000002 11.315691 0.000068 -0.000008 -0.965011 -10.880628 -5.757734 -0.000004 0.000030 -38.200310 0.898946 -0.859791 43.498422 -0.000009 0.000071 -39.900848 -3.065794 6.128630 6.060782 0.000030 -15.261650 0.000010 -2.121906 -0.454556 -19.672716 0.000006 -7.539976 -0.000001 -0.000000 -0.000000 0.000000 0.000029 0.000055 -0.000001 0.000001 0.000000 0.000001 -0.000002 0.000063 -0.000006 -0.000000 0.000000 -0.000003 
